<svg version="1.1" xmlns="http://www.w3.org/2000/svg" xmlns:xlink="http://www.w3.org/1999/xlink" width="30" height="53"><defs/><g><path fill="rgb(255,255,255)" stroke="none" paint-order="stroke fill markers" fill-rule="evenodd" d=" M 23.006540298461914 40.94423520565033 C 22.955041885375977 42.6537321805954 23.652931213378906 45.60546362400055 24.50025177001953 47.26016902923584 C 24.50025177001953 47.26016902923584 25.841527938842773 49.8796443939209 25.841527938842773 49.8796443939209 C 26.07404327392578 50.33375692367554 26.049238204956055 50.87290596961975 25.77595329284668 51.3046635389328 C 25.502582550048828 51.73685944080353 25.019784927368164 51.99985897541046 24.499908447265625 51.99985897541046 C 24.499908447265625 51.99985897541046 6.49992561340332 51.99985897541046 6.49992561340332 51.99985897541046 C 5.980134963989258 51.99985897541046 5.497251510620117 51.73685944080353 5.223966598510742 51.3046635389328 C 4.950681686401367 50.87290596961975 4.925876617431641 50.33375692367554 5.158306121826172 49.8796443939209 C 5.158306121826172 49.8796443939209 6.499668121337891 47.26016902923584 6.499668121337891 47.26016902923584 C 7.347246170043945 45.60458695888519 8.045221328735352 42.65154051780701 7.993207931518555 40.940290212631226 C 7.916131973266602 38.405413031578064 7.201076507568359 36.38864493370056 5.674320220947266 34.402121782302856 C 3.304964065551758 31.319328904151917 1.999908447265625 27.376965880393982 1.999908447265625 23.301788091659546 C 1.999908447265625 23.301788091659546 1.999908447265625 12.351364135742188 1.999908447265625 12.351364135742188 C 1.999908447265625 8.313006281852722 5.364471435546875 5.026827096939087 9.49996566772461 5.026827096939087 C 9.509235382080078 5.026827096939087 9.518590927124023 5.026827096939087 9.527688980102539 5.027265429496765 C 10.95762825012207 3.138928771018982 13.16862678527832 1.9997024536132812 15.499959945678711 1.9997024536132812 C 17.831207275390625 1.9997024536132812 20.042205810546875 3.138928771018982 21.472230911254883 5.027265429496765 C 21.4813289642334 5.026827096939087 21.490684509277344 5.026827096939087 21.499954223632812 5.026827096939087 C 25.635448455810547 5.026827096939087 28.99992561340332 8.313006281852722 28.99992561340332 12.351364135742188 C 28.99992561340332 12.351364135742188 28.99992561340332 23.302664756774902 28.99992561340332 23.302664756774902 C 28.99992561340332 27.379157543182373 27.696243286132812 31.320205569267273 25.32903289794922 34.39905345439911 C 23.799358367919922 36.38864493370056 23.083187103271484 38.40716636180878 23.006540298461914 40.94423520565033 Z M 25.999971389770508 16.74564802646637 C 25.999971389770508 16.74564802646637 22.99993133544922 16.74564802646637 22.99993133544922 16.74564802646637 C 22.99993133544922 16.74564802646637 22.99993133544922 13.816271543502808 22.99993133544922 13.816271543502808 C 22.99993133544922 13.816271543502808 25.999971389770508 13.816271543502808 25.999971389770508 13.816271543502808 C 25.999971389770508 13.816271543502808 25.999971389770508 16.74564802646637 25.999971389770508 16.74564802646637 Z M 5.257955551147461 10.886456727981567 C 5.257955551147461 10.886456727981567 15.499959945678711 10.886456727981567 15.499959945678711 10.886456727981567 C 16.328311920166016 10.886456727981567 16.999937057495117 11.542202234268188 16.999937057495117 12.351364135742188 C 16.999937057495117 12.351364135742188 16.999937057495117 21.14037024974823 16.999937057495117 21.14037024974823 C 16.999937057495117 21.947778820991516 17.672849655151367 22.60527765750885 18.499914169311523 22.60527765750885 C 19.327064514160156 22.60527765750885 19.999977111816406 21.947778820991516 19.999977111816406 21.14037024974823 C 19.999977111816406 21.14037024974823 19.999977111816406 12.351364135742188 19.999977111816406 12.351364135742188 C 19.999977111816406 11.542202234268188 20.67151641845703 10.886456727981567 21.499954223632812 10.886456727981567 C 21.499954223632812 10.886456727981567 25.74196434020996 10.886456727981567 25.74196434020996 10.886456727981567 C 25.12278175354004 9.181343078613281 23.455434799194336 7.956641912460327 21.499954223632812 7.956641912460327 C 21.35120964050293 7.956641912460327 21.139636993408203 7.991708517074585 20.908323287963867 8.021953463554382 C 20.29901123046875 8.100853323936462 19.703947067260742 7.809362173080444 19.403282165527344 7.287308096885681 C 18.566347122192383 5.832920670509338 17.07074737548828 4.929078936576843 15.499959945678711 4.929078936576843 C 13.92917251586914 4.929078936576843 12.433572769165039 5.832920670509338 11.596637725830078 7.287308096885681 C 11.29597282409668 7.809362173080444 10.70022201538086 8.100853323936462 10.091510772705078 8.021953463554382 C 9.853588104248047 7.9908318519592285 9.648881912231445 7.956641912460327 9.49996566772461 7.956641912460327 C 7.544485092163086 7.956641912460327 5.877138137817383 9.181343078613281 5.257955551147461 10.886456727981567 Z M 4.999948501586914 13.816271543502808 C 4.999948501586914 13.816271543502808 13.999982833862305 13.816271543502808 13.999982833862305 13.816271543502808 C 13.999982833862305 13.816271543502808 13.999982833862305 16.74564802646637 13.999982833862305 16.74564802646637 C 13.999982833862305 16.74564802646637 4.999948501586914 16.74564802646637 4.999948501586914 16.74564802646637 C 4.999948501586914 16.74564802646637 4.999948501586914 13.816271543502808 4.999948501586914 13.816271543502808 Z M 22.07304573059082 49.07004415988922 C 22.07304573059082 49.07004415988922 21.817184448242188 48.56990671157837 21.817184448242188 48.56990671157837 C 21.463905334472656 47.880409598350525 21.138864517211914 47.03793442249298 20.864120483398438 46.14022934436798 C 20.864120483398438 46.14022934436798 10.135971069335938 46.14022934436798 10.135971069335938 46.14022934436798 C 9.861227035522461 47.03793442249298 9.536186218261719 47.880409598350525 9.18307876586914 48.57034504413605 C 9.18307876586914 48.57034504413605 8.927045822143555 49.07004415988922 8.927045822143555 49.07004415988922 C 8.927045822143555 49.07004415988922 22.07304573059082 49.07004415988922 22.07304573059082 49.07004415988922 Z M 25.999971389770508 23.302664756774902 C 25.999971389770508 23.302664756774902 25.999971389770508 19.67546284198761 25.999971389770508 19.67546284198761 C 25.999971389770508 19.67546284198761 22.99993133544922 19.67546284198761 22.99993133544922 19.67546284198761 C 22.99993133544922 19.67546284198761 22.99993133544922 21.14037024974823 22.99993133544922 21.14037024974823 C 22.99993133544922 23.563472628593445 20.981279373168945 25.53509247303009 18.499914169311523 25.53509247303009 C 16.018634796142578 25.53509247303009 13.999982833862305 23.563472628593445 13.999982833862305 21.14037024974823 C 13.999982833862305 21.14037024974823 13.999982833862305 19.67546284198761 13.999982833862305 19.67546284198761 C 13.999982833862305 19.67546284198761 4.999948501586914 19.67546284198761 4.999948501586914 19.67546284198761 C 4.999948501586914 19.67546284198761 4.999948501586914 23.301788091659546 4.999948501586914 23.301788091659546 C 4.999948501586914 26.746643662452698 6.091543197631836 30.064382791519165 8.073545455932617 32.64353156089783 C 9.969287872314453 35.110467195510864 10.896516799926758 37.71898424625397 10.991617202758789 40.85350036621094 C 11.01255989074707 41.539929151535034 10.946126937866211 42.353474378585815 10.81231689453125 43.21041452884674 C 10.81231689453125 43.21041452884674 20.187088012695312 43.21041452884674 20.187088012695312 43.21041452884674 C 20.05353546142578 42.35478937625885 19.9871883392334 41.54299747943878 20.00787353515625 40.8583220243454 C 20.1025447845459 37.72161424160004 21.030975341796875 35.110467195510864 22.929807662963867 32.6400249004364 C 24.909578323364258 30.064821124076843 25.999971389770508 26.749273657798767 25.999971389770508 23.302664756774902 Z"/></g></svg>