<svg version="1.1" xmlns="http://www.w3.org/2000/svg" xmlns:xlink="http://www.w3.org/1999/xlink" width="40" height="45"><defs/><g><path fill="rgb(255,255,255)" stroke="none" paint-order="stroke fill markers" fill-rule="evenodd" d=" M 37.761112213134766 42.9447762966156 C 37.46405220031738 43.43088710308075 36.934391021728516 43.72719991207123 36.36344528198242 43.72719991207123 C 30.021587371826172 43.72719991207123 11.98109245300293 43.72719991207123 3.636289596557617 43.72719991207123 C 3.0654296875 43.72719991207123 2.5355968475341797 43.43088710308075 2.23870849609375 42.9447762966156 C 1.9417343139648438 42.45954215526581 1.9204483032226562 41.85464322566986 2.182403564453125 41.34924578666687 C 2.182403564453125 41.34924578666687 18.158241271972656 10.537973642349243 18.158241271972656 10.537973642349243 C 18.158241271972656 10.537973642349243 14.964223861694336 4.37808620929718 14.964223861694336 4.37808620929718 C 14.549489974975586 3.578129291534424 14.86423110961914 2.5949493646621704 15.66726303100586 2.1816017627716064 C 16.470294952392578 1.7686924934387207 17.457347869873047 2.08210027217865 17.872081756591797 2.8820571899414062 C 17.872081756591797 2.8820571899414062 19.999910354614258 6.985726594924927 19.999910354614258 6.985726594924927 C 19.999910354614258 6.985726594924927 22.127824783325195 2.8820571899414062 22.127824783325195 2.8820571899414062 C 22.542558670043945 2.08210027217865 23.529783248901367 1.7686924934387207 24.332643508911133 2.1816017627716064 C 25.135589599609375 2.5949493646621704 25.45033073425293 3.578129291534424 25.03559684753418 4.37808620929718 C 25.03559684753418 4.37808620929718 21.84157943725586 10.537973642349243 21.84157943725586 10.537973642349243 C 21.84157943725586 10.537973642349243 37.817331314086914 41.34924578666687 37.817331314086914 41.34924578666687 C 38.07928657531738 41.85464322566986 38.058000564575195 42.45954215526581 37.761112213134766 42.9447762966156 Z M 24.28054428100586 40.467320680618286 C 22.42385482788086 38.22919464111328 21.023527145385742 35.347596406936646 19.99982452392578 32.60451126098633 C 18.97637939453125 35.34715807437897 17.576051712036133 38.2287563085556 15.71919059753418 40.467320680618286 C 15.71919059753418 40.467320680618286 24.28054428100586 40.467320680618286 24.28054428100586 40.467320680618286 Z M 33.67660140991211 40.467320680618286 C 33.67660140991211 40.467320680618286 19.99982452392578 14.09022068977356 19.99982452392578 14.09022068977356 C 19.99982452392578 14.09022068977356 6.323047637939453 40.467320680618286 6.323047637939453 40.467320680618286 C 6.323047637939453 40.467320680618286 10.887094497680664 40.467320680618286 10.887094497680664 40.467320680618286 C 12.936988830566406 39.209744572639465 14.851871490478516 36.53986096382141 16.443687438964844 32.70839607715607 C 17.775436401367188 29.503308415412903 18.39264488220215 26.63091516494751 18.398653030395508 26.602423548698425 C 18.558555603027344 25.848491549491882 19.226490020751953 25.30890417098999 19.999652862548828 25.30890417098999 C 19.999996185302734 25.30890417098999 20.000253677368164 25.30890417098999 20.00059700012207 25.30890417098999 C 20.774274826049805 25.30934250354767 21.441951751708984 25.84936821460724 21.601167678833008 26.60330021381378 C 22.489944458007812 30.80647110939026 25.210777282714844 38.07402491569519 29.1125545501709 40.467320680618286 C 29.1125545501709 40.467320680618286 29.1125545501709 40.467320680618286 29.1125545501709 40.467320680618286 C 29.1125545501709 40.467320680618286 33.67660140991211 40.467320680618286 33.67660140991211 40.467320680618286 Z"/></g></svg>