<?xml version="1.0" encoding="UTF-8"?>
<svg width="14px" height="12px" viewBox="0 0 14 12" version="1.1" xmlns="http://www.w3.org/2000/svg" xmlns:xlink="http://www.w3.org/1999/xlink">
    <!-- Generator: Sketch 50.2 (55047) - http://www.bohemiancoding.com/sketch -->
    <title>Shape</title>
    <desc>Created with Sketch.</desc>
    <defs></defs>
    <g id="main" stroke="none" stroke-width="1" fill="none" fill-rule="evenodd" fill-opacity="0.8">
        <g id="main-3" transform="translate(-468.000000, -1552.000000)" fill="#F64B00" fill-rule="nonzero">
            <g id="Group-29" transform="translate(109.000000, 1541.000000)">
                <g id="left-arrow-2" transform="translate(366.000000, 17.000000) rotate(-180.000000) translate(-366.000000, -17.000000) translate(359.000000, 11.000000)">
                    <path d="M13.2130408,4.8670458 L3.86673391,4.87197909 L6.8117414,1.82614058 C6.95595275,1.67743704 7.03505843,1.47599424 7.03505843,1.26456741 C7.03505843,1.05314057 6.95595275,0.853107289 6.8117414,0.704051369 L6.3534976,0.23092509 C6.20940007,0.0822215479 6.01738385,0 5.81261967,0 C5.60774167,0 5.41561163,0.0816342511 5.2715141,0.230337794 L0.223206253,5.43954269 C0.0785396177,5.58883353 -0.000566056144,5.78769222 3.04942307e-06,5.99923651 C-0.000566056144,6.2119554 0.0785396177,6.41093155 0.223206253,6.55998747 L5.2715141,11.7696622 C5.41561163,11.9182483 5.60762784,12 5.81261967,12 C6.01738385,12 6.20940007,11.9181308 6.3534976,11.7696622 L6.8117414,11.2965359 C6.95595275,11.1480673 7.03505843,10.9497959 7.03505843,10.7383691 C7.03505843,10.5270597 6.95595275,10.3392422 6.8117414,10.1906561 L3.83349815,7.12778599 L13.2235124,7.12778599 C13.6454472,7.12778599 14,6.75250335 14,6.31731645 L14,5.6481505 C14,5.2129636 13.6349757,4.8670458 13.2130408,4.8670458 Z" id="Shape"></path>
                </g>
            </g>
        </g>
    </g>
</svg>