<svg version="1.1" xmlns="http://www.w3.org/2000/svg" xmlns:xlink="http://www.w3.org/1999/xlink" width="40" height="40"><defs/><g><path fill="rgb(255,255,255)" stroke="none" paint-order="stroke fill markers" fill-rule="evenodd" d=" M 38.99990653991699 20.499741077423096 C 38.99990653991699 30.700178027153015 30.700422286987305 38.99956667423248 20.49995994567871 38.99956667423248 C 10.299497604370117 38.99956667423248 1.9999275207519531 30.700178027153015 1.9999275207519531 20.499741077423096 C 1.9999275207519531 10.299304127693176 10.299497604370117 1.9999154806137085 20.49995994567871 1.9999154806137085 C 30.700336456298828 1.9999154806137085 38.99990653991699 10.299304127693176 38.99990653991699 20.499741077423096 Z M 23.906322479248047 16.760326027870178 C 24.273935317993164 17.51425802707672 24.625411987304688 18.280025005340576 24.953800201416016 19.049736976623535 C 24.953800201416016 19.049736976623535 25.29377555847168 19.865912199020386 25.29377555847168 19.865912199020386 C 30.5546817779541 19.204468369483948 35.77396011352539 20.263918161392212 36.29658317565918 20.374816298484802 C 36.26190757751465 16.644606232643127 34.93221855163574 13.219913959503174 32.73074722290039 10.530743718147278 C 32.39772415161133 10.98134958744049 29.74993324279785 14.376235246658325 23.906322479248047 16.760326027870178 Z M 16.797653198242188 5.160731554031372 C 17.23478889465332 5.745905518531799 20.104537963867188 9.654078602790833 22.694564819335938 14.410863518714905 C 28.313899993896484 12.304237246513367 30.691152572631836 9.108354568481445 30.973278045654297 8.703773617744446 C 28.18438148498535 6.227194666862488 24.514432907104492 4.721522331237793 20.49995994567871 4.721522331237793 C 19.22580337524414 4.721522331237793 17.986236572265625 4.8740620613098145 16.797653198242188 5.160731554031372 Z M 5.031639099121094 17.28764009475708 C 5.739313125610352 17.296845078468323 12.248970031738281 17.32446002960205 19.639678955078125 15.36160683631897 C 17.021928787231445 10.706515073776245 14.198442459106445 6.7935203313827515 13.782163619995117 6.222373008728027 C 9.360681533813477 8.308397650718689 6.056028366088867 12.382698774337769 5.031639099121094 17.28764009475708 Z M 8.757034301757812 31.08854067325592 C 9.117780685424805 30.478381752967834 13.453689575195312 23.2954261302948 21.60065269470215 20.66148579120636 C 21.60065269470215 20.66148579120636 22.224985122680664 20.47431778907776 22.224985122680664 20.47431778907776 C 21.82733154296875 19.577051043510437 21.39714813232422 18.677592635154724 20.9416446685791 17.791722536087036 C 13.053632736206055 20.152581691741943 5.394617080688477 20.055710196495056 4.703165054321289 20.039491891860962 C 4.703165054321289 20.039491891860962 4.696298599243164 20.52297270298004 4.696298599243164 20.52297270298004 C 4.698616027832031 24.583685517311096 6.236444473266602 28.288033962249756 8.757034301757812 31.08854067325592 Z M 26.671958923339844 35.07079195976257 C 26.433778762817383 33.68303108215332 25.520368576049805 28.850414633750916 23.300357818603516 23.087218165397644 C 23.300357818603516 23.087218165397644 23.196331024169922 23.122284770011902 23.196331024169922 23.122284770011902 C 14.283929824829102 26.22787094116211 11.083389282226562 32.411428332328796 10.798946380615234 32.98958897590637 C 13.479181289672852 35.079996943473816 16.846147537231445 36.32398474216461 20.497642517089844 36.32398474216461 C 22.689844131469727 36.32661473751068 24.778018951416016 35.87776219844818 26.671958923339844 35.07079195976257 Z M 36.10234832763672 23.03417992591858 C 35.56118583679199 22.862791895866394 31.21137237548828 21.563574194908142 26.260400772094727 22.356517791748047 C 28.323083877563477 28.035992741584778 29.167142868041992 32.660839557647705 29.32901954650879 33.622979521751404 C 32.876487731933594 31.227492094039917 35.39476013183594 27.428025484085083 36.10234832763672 23.03417992591858 Z"/></g></svg>