<svg version="1.1" xmlns="http://www.w3.org/2000/svg" xmlns:xlink="http://www.w3.org/1999/xlink" width="52" height="39"><defs/><g><path fill="rgb(255,255,255)" stroke="none" paint-order="stroke fill markers" fill-rule="evenodd" d=" M 50.99992752075195 12.499290347099304 C 50.99992752075195 13.00118112564087 50.74423789978027 13.46975862979889 50.318002700805664 13.747661471366882 C 50.318002700805664 13.747661471366882 45.72425842285156 16.747609496116638 45.72425842285156 16.747609496116638 C 45.473031997680664 16.911545872688293 45.177001953125 16.999650716781616 44.87496376037598 16.999650716781616 C 44.87496376037598 16.999650716781616 32.62495040893555 16.999650716781616 32.62495040893555 16.999650716781616 C 32.62495040893555 16.999650716781616 32.62495040893555 18.499624729156494 32.62495040893555 18.499624729156494 C 32.62495040893555 19.328073263168335 31.939334869384766 19.999598741531372 31.093645095825195 19.999598741531372 C 31.093645095825195 19.999598741531372 28.031206130981445 19.999598741531372 28.031206130981445 19.999598741531372 C 28.031206130981445 19.999598741531372 28.031206130981445 21.49957275390625 28.031206130981445 21.49957275390625 C 28.031206130981445 22.32802128791809 27.345590591430664 22.999546766281128 26.499900817871094 22.999546766281128 C 26.499900817871094 22.999546766281128 23.437461853027344 22.999546766281128 23.437461853027344 22.999546766281128 C 23.437461853027344 26.307642579078674 20.689678192138672 28.999881148338318 17.31241226196289 28.999881148338318 C 17.31241226196289 31.038127541542053 18.24848175048828 34.78937757015228 18.902769088745117 35.371044874191284 C 19.370718002319336 35.787899136543274 19.539718627929688 36.45284962654114 19.31243896484375 37.030571937561035 C 19.08447265625 37.60960924625397 18.526573181152344 37.999725222587585 17.894086837768555 37.999725222587585 C 17.894086837768555 37.999725222587585 9.656143188476562 37.999725222587585 9.656143188476562 37.999725222587585 C 8.810539245605469 37.999725222587585 8.124923706054688 37.32776141166687 8.124923706054688 36.49975121021271 C 8.124923706054688 36.49975121021271 8.124923706054688 22.847883701324463 8.124923706054688 22.847883701324463 C 4.63470458984375 22.15093493461609 1.999959945678711 19.121618628501892 1.999959945678711 15.499676704406738 C 1.999959945678711 15.499676704406738 1.999959945678711 9.499780654907227 1.999959945678711 9.499780654907227 C 1.999959945678711 5.364551305770874 5.434818267822266 1.999910593032837 9.656143188476562 1.999910593032837 C 9.656143188476562 1.999910593032837 26.499900817871094 1.999910593032837 26.499900817871094 1.999910593032837 C 27.345590591430664 1.999910593032837 28.031206130981445 2.671436071395874 28.031206130981445 3.499884605407715 C 28.031206130981445 3.499884605407715 28.031206130981445 4.9994202852249146 28.031206130981445 4.9994202852249146 C 28.031206130981445 4.9994202852249146 31.093645095825195 4.9994202852249146 31.093645095825195 4.9994202852249146 C 31.939334869384766 4.9994202852249146 32.62495040893555 5.67138409614563 32.62495040893555 6.499832630157471 C 32.62495040893555 6.499832630157471 32.62495040893555 7.999806642532349 32.62495040893555 7.999806642532349 C 32.62495040893555 7.999806642532349 44.87496376037598 7.999806642532349 44.87496376037598 7.999806642532349 C 45.177001953125 7.999806642532349 45.473031997680664 8.087911486625671 45.72425842285156 8.251409530639648 C 45.72425842285156 8.251409530639648 50.318002700805664 11.251795887947083 50.318002700805664 11.251795887947083 C 50.74423789978027 11.529698729515076 50.99992752075195 11.998276233673096 50.99992752075195 12.499290347099304 Z M 15.345258712768555 34.99977719783783 C 14.548234939575195 32.732282876968384 14.249887466430664 29.90722954273224 14.249887466430664 28.999881148338318 C 14.249887466430664 28.999881148338318 14.249887466430664 22.999546766281128 14.249887466430664 22.999546766281128 C 14.249887466430664 22.999546766281128 11.187448501586914 22.999546766281128 11.187448501586914 22.999546766281128 C 11.187448501586914 22.999546766281128 11.187448501586914 34.99977719783783 11.187448501586914 34.99977719783783 C 11.187448501586914 34.99977719783783 15.345258712768555 34.99977719783783 15.345258712768555 34.99977719783783 Z M 20.374937057495117 22.999546766281128 C 20.374937057495117 22.999546766281128 17.31241226196289 22.999546766281128 17.31241226196289 22.999546766281128 C 17.31241226196289 22.999546766281128 17.31241226196289 25.999494791030884 17.31241226196289 25.999494791030884 C 19.001388549804688 25.999494791030884 20.374937057495117 24.65425217151642 20.374937057495117 22.999546766281128 Z M 29.56242561340332 15.499676704406738 C 29.56242561340332 15.499676704406738 29.56242561340332 9.499780654907227 29.56242561340332 9.499780654907227 C 29.56242561340332 9.499780654907227 29.56242561340332 7.999806642532349 29.56242561340332 7.999806642532349 C 29.56242561340332 7.999806642532349 26.499900817871094 7.999806642532349 26.499900817871094 7.999806642532349 C 25.654296875 7.999806642532349 24.96868133544922 7.327842831611633 24.96868133544922 6.499832630157471 C 24.96868133544922 6.499832630157471 24.96868133544922 4.9994202852249146 24.96868133544922 4.9994202852249146 C 24.96868133544922 4.9994202852249146 9.656143188476562 4.9994202852249146 9.656143188476562 4.9994202852249146 C 7.123022079467773 4.9994202852249146 5.062398910522461 7.01794171333313 5.062398910522461 9.499780654907227 C 5.062398910522461 9.499780654907227 5.062398910522461 15.499676704406738 5.062398910522461 15.499676704406738 C 5.062398910522461 17.981077313423157 7.123022079467773 19.999598741531372 9.656143188476562 19.999598741531372 C 9.656143188476562 19.999598741531372 15.781192779541016 19.999598741531372 15.781192779541016 19.999598741531372 C 15.781192779541016 19.999598741531372 24.96868133544922 19.999598741531372 24.96868133544922 19.999598741531372 C 24.96868133544922 19.999598741531372 24.96868133544922 18.499624729156494 24.96868133544922 18.499624729156494 C 24.96868133544922 17.671176195144653 25.654296875 16.999650716781616 26.499900817871094 16.999650716781616 C 26.499900817871094 16.999650716781616 29.56242561340332 16.999650716781616 29.56242561340332 16.999650716781616 C 29.56242561340332 16.999650716781616 29.56242561340332 15.499676704406738 29.56242561340332 15.499676704406738 Z M 46.708221435546875 12.499290347099304 C 46.708221435546875 12.499290347099304 44.411306381225586 10.999754667282104 44.411306381225586 10.999754667282104 C 44.411306381225586 10.999754667282104 43.97768974304199 10.999754667282104 43.97768974304199 10.999754667282104 C 43.97768974304199 10.999754667282104 42.89510726928711 12.060519456863403 42.89510726928711 12.060519456863403 C 42.596073150634766 12.353325605392456 42.20425605773926 12.499290347099304 41.81243896484375 12.499290347099304 C 41.42062187194824 12.499290347099304 41.02889060974121 12.353325605392456 40.72985649108887 12.060519456863403 C 40.43073654174805 11.767274975776672 40.281219482421875 11.38329565525055 40.281219482421875 10.999754667282104 C 40.281219482421875 10.999754667282104 39.38394546508789 10.999754667282104 39.38394546508789 10.999754667282104 C 39.38394546508789 10.999754667282104 38.30136299133301 12.060519456863403 38.30136299133301 12.060519456863403 C 38.002328872680664 12.353325605392456 37.610511779785156 12.499290347099304 37.21869468688965 12.499290347099304 C 36.82687759399414 12.499290347099304 36.43514633178711 12.353325605392456 36.136112213134766 12.060519456863403 C 35.836992263793945 11.767274975776672 35.6873893737793 11.38329565525055 35.6873893737793 10.999754667282104 C 35.6873893737793 10.999754667282104 32.62495040893555 10.999754667282104 32.62495040893555 10.999754667282104 C 32.62495040893555 10.999754667282104 32.62495040893555 13.99970269203186 32.62495040893555 13.99970269203186 C 32.62495040893555 13.99970269203186 44.411306381225586 13.99970269203186 44.411306381225586 13.99970269203186 C 44.411306381225586 13.99970269203186 46.708221435546875 12.499290347099304 46.708221435546875 12.499290347099304 Z"/></g></svg>