<svg version="1.1" xmlns="http://www.w3.org/2000/svg" xmlns:xlink="http://www.w3.org/1999/xlink" width="45" height="45"><defs/><g><path fill="rgb(255,255,255)" stroke="none" paint-order="stroke fill markers" fill-rule="evenodd" d=" M 43.95538902282715 33.750027656555176 C 43.9500675201416 34.194058537483215 43.588462829589844 34.549546241760254 43.147722244262695 34.544286251068115 C 43.076311111450195 34.55480623245239 43.00361251831055 34.55480623245239 42.93220138549805 34.544286251068115 C 42.93220138549805 34.544286251068115 38.486772537231445 33.338433384895325 38.486772537231445 33.338433384895325 C 37.59293174743652 33.0973504781723 36.531463623046875 33.99724721908569 36.1962947845459 35.259644985198975 C 36.014591217041016 35.883392214775085 36.04265785217285 36.55053436756134 36.276031494140625 37.15674829483032 C 36.42889595031738 37.59639585018158 36.7774543762207 37.93873357772827 37.217851638793945 38.081191658973694 C 37.217851638793945 38.081191658973694 41.71108818054199 39.29537284374237 41.71108818054199 39.29537284374237 C 41.81974983215332 39.32956278324127 41.920000076293945 39.38654601573944 42.00505828857422 39.46237754821777 C 42.334218978881836 39.757813692092896 42.36340141296387 40.265841126441956 42.070289611816406 40.59765887260437 C 40.39873695373535 42.31636083126068 37.998138427734375 43.10360610485077 35.642343521118164 42.70428514480591 C 31.665035247802734 42.03100633621216 28.98299789428711 38.23679971694946 29.65187644958496 34.23044013977051 C 29.65187644958496 34.23044013977051 21.91029167175293 26.432503938674927 21.91029167175293 26.432503938674927 C 21.91029167175293 26.432503938674927 19.356313705444336 29.061184287071228 19.356313705444336 29.061184287071228 C 19.356313705444336 29.061184287071228 19.938932418823242 29.648111581802368 19.938932418823242 29.648111581802368 C 19.9559268951416 29.664329886436462 19.972492218017578 29.680986523628235 19.988628387451172 29.698081493377686 C 20.598112106323242 30.339800357818604 20.575881958007812 31.357608556747437 19.938932418823242 31.971712470054626 C 19.938932418823242 31.971712470054626 19.140878677368164 32.77517604827881 19.140878677368164 32.77517604827881 C 18.548904418945312 33.387964963912964 17.58468246459961 33.42653822898865 16.946102142333984 32.86415755748749 C 16.946102142333984 32.86415755748749 7.496572494506836 42.37422072887421 7.496572494506836 42.37422072887421 C 7.480436325073242 42.39131569862366 7.463871002197266 42.40797233581543 7.446876525878906 42.424190640449524 C 6.8100128173828125 43.038294553756714 5.799528121948242 43.015939593315125 5.190044403076172 42.37422072887421 C 5.190044403076172 42.37422072887421 2.492471694946289 39.656997203826904 2.492471694946289 39.656997203826904 C 2.4755630493164062 39.64077889919281 2.4589977264404297 39.62412226200104 2.442861557006836 39.60702729225159 C 1.8333778381347656 38.96530842781067 1.8556079864501953 37.947938561439514 2.492471694946289 37.333834648132324 C 2.492471694946289 37.333834648132324 11.934019088745117 27.83955144882202 11.934019088745117 27.83955144882202 C 11.375261306762695 27.19607925415039 11.413799285888672 26.22473430633545 12.02182388305664 25.628602027893066 C 12.02182388305664 25.628602027893066 12.819877624511719 24.824700117111206 12.819877624511719 24.824700117111206 C 13.464895248413086 24.202706217765808 14.481473922729492 24.202706217765808 15.126405715942383 24.824700117111206 C 15.126405715942383 24.824700117111206 15.709024429321289 25.40329909324646 15.709024429321289 25.40329909324646 C 15.709024429321289 25.40329909324646 18.278881072998047 22.814507007598877 18.278881072998047 22.814507007598877 C 18.278881072998047 22.814507007598877 12.341028213500977 16.833897590637207 12.341028213500977 16.833897590637207 C 11.574989318847656 17.16352367401123 10.75839614868164 17.359458327293396 9.926782608032227 17.411619901657104 C 5.901580810546875 17.666291117668152 2.4337635040283203 14.585251569747925 2.1812496185302734 10.531113743782043 C 2.1714649200439453 10.378135681152344 2.2051963806152344 10.226034283638 2.278409957885742 10.092342853546143 C 2.4908409118652344 9.70310354232788 2.9761276245117188 9.561522126197815 3.36236572265625 9.775428414344788 C 3.36236572265625 9.775428414344788 6.722293853759766 11.608096837997437 6.722293853759766 11.608096837997437 C 7.528415679931641 12.058264374732971 8.765493392944336 11.463447093963623 9.411970138549805 10.305810809135437 C 10.058361053466797 9.148174524307251 9.898801803588867 7.781453609466553 9.100662231445312 7.32339608669281 C 9.100662231445312 7.32339608669281 5.477319717407227 5.289094686508179 5.477319717407227 5.289094686508179 C 5.369173049926758 5.228166460990906 5.2767333984375 5.142253279685974 5.2073822021484375 5.039245128631592 C 4.960447311401367 4.671045780181885 5.0563201904296875 4.171346664428711 5.421443939208984 3.9228121042251587 C 6.97661018371582 2.8791422843933105 8.869949340820312 2.4758763313293457 10.711446762084961 2.7958590984344482 C 14.685836791992188 3.486232876777649 17.352081298828125 7.290959477424622 16.666637420654297 11.294689059257507 C 16.666637420654297 11.294689059257507 23.195091247558594 17.870554089546204 23.195091247558594 17.870554089546204 C 23.195091247558594 17.870554089546204 32.708478927612305 8.304384350776672 32.708478927612305 8.304384350776672 C 32.708478927612305 8.304384350776672 32.77233695983887 6.036890029907227 32.77233695983887 6.036890029907227 C 32.78057670593262 5.761617183685303 32.928205490112305 5.510014295578003 33.163381576538086 5.369747877120972 C 33.163381576538086 5.369747877120972 38.59843826293945 2.113813638687134 38.59843826293945 2.113813638687134 C 38.91206359863281 1.9244539737701416 39.31332206726074 1.974423885345459 39.57210159301758 2.2347934246063232 C 39.57210159301758 2.2347934246063232 42.365461349487305 5.048011779785156 42.365461349487305 5.048011779785156 C 42.623640060424805 5.308819651603699 42.67299270629883 5.71296226978302 42.48519515991211 6.0290000438690186 C 42.48519515991211 6.0290000438690186 39.25289726257324 11.50377368927002 39.25289726257324 11.50377368927002 C 39.11359405517578 11.74047327041626 38.86374092102051 11.889506340026855 38.59045600891113 11.897396326065063 C 38.59045600891113 11.897396326065063 36.33182144165039 11.961831212043762 36.33182144165039 11.961831212043762 C 36.33182144165039 11.961831212043762 26.794572830200195 21.49644100666046 26.794572830200195 21.49644100666046 C 26.794572830200195 21.49644100666046 33.977399826049805 28.731996536254883 33.977399826049805 28.731996536254883 C 34.88814926147461 28.339688897132874 35.86824989318848 28.137179255485535 36.858564376831055 28.136740922927856 C 38.796363830566406 28.131480932235718 40.655799865722656 28.907329559326172 42.02231025695801 30.29114544391632 C 42.88027381896973 31.148085594177246 43.51361846923828 32.206220388412476 43.865867614746094 33.370431661605835 C 43.926292419433594 33.4879047870636 43.95684814453125 33.61765122413635 43.95538902282715 33.750027656555176 Z M 24.320417404174805 19.004520416259766 C 24.320417404174805 19.004520416259766 25.693193435668945 20.38702130317688 25.693193435668945 20.38702130317688 C 25.693193435668945 20.38702130317688 35.42999839782715 10.587220311164856 35.42999839782715 10.587220311164856 C 35.574623107910156 10.442570567131042 35.76885795593262 10.358849048614502 35.97270584106445 10.354027390480042 C 35.97270584106445 10.354027390480042 38.14353561401367 10.273812532424927 38.14353561401367 10.273812532424927 C 38.14353561401367 10.273812532424927 40.77725028991699 5.723482251167297 40.77725028991699 5.723482251167297 C 40.77725028991699 5.723482251167297 38.86176681518555 3.7939423322677612 38.86176681518555 3.7939423322677612 C 38.86176681518555 3.7939423322677612 34.33660125732422 6.5032758712768555 34.33660125732422 6.5032758712768555 C 34.33660125732422 6.5032758712768555 34.272743225097656 8.649790406227112 34.272743225097656 8.649790406227112 C 34.267765045166016 8.85493004322052 34.18493843078613 9.050864696502686 34.04125785827637 9.196391105651855 C 34.04125785827637 9.196391105651855 24.320417404174805 19.004520416259766 24.320417404174805 19.004520416259766 Z M 6.363178253173828 41.232802748680115 C 6.363178253173828 41.232802748680115 3.6256942749023438 38.49147093296051 3.6256942749023438 38.49147093296051 C 3.6256942749023438 38.49147093296051 13.115135192871094 28.95686113834381 13.115135192871094 28.95686113834381 C 13.115135192871094 28.95686113834381 14.487825393676758 30.339362025260925 14.487825393676758 30.339362025260925 C 14.487825393676758 30.339362025260925 15.796743392944336 31.706082940101624 15.796743392944336 31.706082940101624 C 15.796743392944336 31.706082940101624 6.363178253173828 41.232802748680115 6.363178253173828 41.232802748680115 Z M 18.039413452148438 31.585541486740112 C 18.039413452148438 31.585541486740112 16.98592758178711 30.516448378562927 16.98592758178711 30.516448378562927 C 16.98592758178711 30.516448378562927 16.578832626342773 30.10616910457611 16.578832626342773 30.10616910457611 C 16.578832626342773 30.10616910457611 13.226886749267578 26.70558512210846 13.226886749267578 26.70558512210846 C 13.226886749267578 26.70558512210846 14.024940490722656 25.9016832113266 14.024940490722656 25.9016832113266 C 14.024940490722656 25.9016832113266 18.813520431518555 30.78952956199646 18.813520431518555 30.78952956199646 C 18.813520431518555 30.78952956199646 18.039413452148438 31.585541486740112 18.039413452148438 31.585541486740112 Z M 18.190990447998047 27.919766306877136 C 18.190990447998047 27.919766306877136 16.818300247192383 26.537265419960022 16.818300247192383 26.537265419960022 C 16.818300247192383 26.537265419960022 19.38815689086914 23.94847333431244 19.38815689086914 23.94847333431244 C 19.38815689086914 23.94847333431244 20.76093292236328 25.33141255378723 20.76093292236328 25.33141255378723 C 20.76093292236328 25.33141255378723 18.190990447998047 27.919766306877136 18.190990447998047 27.919766306877136 Z M 41.76687812805176 32.57441973686218 C 40.742231369018555 30.819774508476257 38.871551513671875 29.743229746818542 36.850582122802734 29.744544744491577 C 35.91880416870117 29.745421409606934 35.00118827819824 29.974231004714966 34.17695617675781 30.41212522983551 C 33.86770820617676 30.57474660873413 33.4896240234375 30.51557171344757 33.24320411682129 30.26703715324402 C 33.24320411682129 30.26703715324402 15.21412467956543 12.114370942115784 15.21412467956543 12.114370942115784 C 15.019289016723633 11.919312953948975 14.937835693359375 11.6370267868042 14.998603820800781 11.367013931274414 C 15.245967864990234 10.293537497520447 15.181766510009766 9.171406149864197 14.813896179199219 8.133872985839844 C 13.753715515136719 5.144444942474365 10.488372802734375 3.586611032485962 7.52043342590332 4.654389142990112 C 7.52043342590332 4.654389142990112 9.842926025390625 5.980783462524414 9.842926025390625 5.980783462524414 C 11.439119338989258 6.881118535995483 11.862092971801758 9.204281091690063 10.776678085327148 11.157929301261902 C 10.104280471801758 12.486076951026917 8.782659530639648 13.355290412902832 7.304912567138672 13.441203594207764 C 6.818767547607422 13.443395256996155 6.340433120727539 13.318470478057861 5.916257858276367 13.079140901565552 C 5.916257858276367 13.079140901565552 4.096561431884766 12.058264374732971 4.096561431884766 12.058264374732971 C 4.913841247558594 14.332772016525269 7.058664321899414 15.847211003303528 9.45977783203125 15.845019340515137 C 10.391555786132812 15.845019340515137 11.309343338012695 15.615333080291748 12.133489608764648 15.177438855171204 C 12.437845230102539 15.002544164657593 12.819791793823242 15.048569083213806 13.075223922729492 15.290090322494507 C 13.075223922729492 15.290090322494507 31.06439208984375 33.42653822898865 31.06439208984375 33.42653822898865 C 31.259227752685547 33.622034549713135 31.340595245361328 33.90432071685791 31.279827117919922 34.174333572387695 C 30.940881729125977 35.62565267086029 31.17477035522461 37.15280330181122 31.932483673095703 38.43317270278931 C 33.54575729370117 41.16047787666321 37.048336029052734 42.053799629211426 39.755693435668945 40.428900837898254 C 39.755693435668945 40.428900837898254 36.78672409057617 39.624998927116394 36.78672409057617 39.624998927116394 C 35.867563247680664 39.35980772972107 35.12564277648926 38.675132274627686 34.78352165222168 37.77567386627197 C 34.412818908691406 36.84158718585968 34.35951805114746 35.809752345085144 34.631858825683594 34.84147572517395 C 34.9753532409668 33.1175137758255 36.41155815124512 31.831884384155273 38.15151786804199 31.690302968025208 C 38.39673614501953 31.68986463546753 38.64092445373535 31.722739577293396 38.87773132324219 31.78629779815674 C 38.87773132324219 31.78629779815674 41.76687812805176 32.57441973686218 41.76687812805176 32.57441973686218 Z"/></g></svg>