<svg version="1.1" xmlns="http://www.w3.org/2000/svg" xmlns:xlink="http://www.w3.org/1999/xlink" width="42" height="42"><defs/><g><path fill="rgb(255,255,255)" stroke="none" paint-order="stroke fill markers" fill-rule="evenodd" d=" M 40.99989318847656 21.499784231185913 C 40.99989318847656 32.25164353847504 32.25177192687988 40.999446392059326 21.49993324279785 40.999446392059326 C 10.74809455871582 40.999446392059326 1.9999732971191406 32.25164353847504 1.9999732971191406 21.499784231185913 C 1.9999732971191406 20.073888421058655 2.1632232666015625 18.68700420856476 2.4557342529296875 17.348774909973145 C 2.4630298614501953 17.316776633262634 2.470325469970703 17.285216689109802 2.4801101684570312 17.25365674495697 C 4.425205230712891 8.539605498313904 12.205757141113281 1.9996837377548218 21.49993324279785 1.9996837377548218 C 30.794109344482422 1.9996837377548218 38.574575424194336 8.539605498313904 40.51975631713867 17.25365674495697 C 40.52945518493652 17.285216689109802 40.53683662414551 17.316776633262634 40.544132232666016 17.348774909973145 C 40.83664321899414 18.68700420856476 40.99989318847656 20.073888421058655 40.99989318847656 21.499784231185913 Z M 5.639108657836914 15.247408628463745 C 15.649971008300781 10.630890130996704 27.349895477294922 10.630890130996704 37.36075782775879 15.247408628463745 C 34.85982322692871 8.927091479301453 28.70026969909668 4.437251091003418 21.49993324279785 4.437251091003418 C 14.299596786499023 4.437251091003418 8.139957427978516 8.927091479301453 5.639108657836914 15.247408628463745 Z M 16.624921798706055 32.46861815452576 C 16.624921798706055 27.763994812965393 12.798074722290039 23.93691325187683 8.093694686889648 23.93691325187683 C 8.093694686889648 23.93691325187683 4.6324005126953125 23.93691325187683 4.6324005126953125 23.93691325187683 C 5.5854644775390625 30.562309861183167 10.343488693237305 35.966511964797974 16.624921798706055 37.843013644218445 C 16.624921798706055 37.843013644218445 16.624921798706055 32.46861815452576 16.624921798706055 32.46861815452576 Z M 38.36746597290039 23.93691325187683 C 38.36746597290039 23.93691325187683 34.906171798706055 23.93691325187683 34.906171798706055 23.93691325187683 C 30.201791763305664 23.93691325187683 26.37494468688965 27.763994812965393 26.37494468688965 32.46861815452576 C 26.37494468688965 32.46861815452576 26.37494468688965 37.843013644218445 26.37494468688965 37.843013644218445 C 32.6563777923584 35.966511964797974 37.41440200805664 30.562309861183167 38.36746597290039 23.93691325187683 Z M 38.562387466430664 21.499784231185913 C 38.562387466430664 20.449101090431213 38.452781677246094 19.425156235694885 38.27236557006836 18.428387999534607 C 27.87157440185547 12.82211458683014 15.130781173706055 12.82211458683014 4.7299041748046875 18.428387999534607 C 4.547084808349609 19.425156235694885 4.4373931884765625 20.449101090431213 4.4373931884765625 21.499784231185913 C 4.4373931884765625 21.499784231185913 8.093694686889648 21.499784231185913 8.093694686889648 21.499784231185913 C 14.141153335571289 21.499784231185913 19.062427520751953 26.42094385623932 19.062427520751953 32.46861815452576 C 19.062427520751953 32.46861815452576 19.062427520751953 38.3672593832016 19.062427520751953 38.3672593832016 C 19.861940383911133 38.481664180755615 20.671152114868164 38.56231737136841 21.49993324279785 38.56231737136841 C 22.32871437072754 38.56231737136841 23.13792610168457 38.481664180755615 23.93743896484375 38.3672593832016 C 23.93743896484375 38.3672593832016 23.93743896484375 32.46861815452576 23.93743896484375 32.46861815452576 C 23.93743896484375 26.42094385623932 28.858713150024414 21.499784231185913 34.906171798706055 21.499784231185913 C 34.906171798706055 21.499784231185913 38.562387466430664 21.499784231185913 38.562387466430664 21.499784231185913 Z"/></g></svg>