<svg version="1.1" xmlns="http://www.w3.org/2000/svg" xmlns:xlink="http://www.w3.org/1999/xlink" width="41" height="41"><defs/><g><path fill="rgb(255,255,255)" stroke="none" paint-order="stroke fill markers" fill-rule="evenodd" d=" M 39.99994087219238 20.999704480171204 C 39.99994087219238 31.50171422958374 31.500728607177734 39.99966752529144 20.999858856201172 39.99966752529144 C 10.497787475585938 39.99966752529144 1.9998626708984375 31.500399231910706 1.9998626708984375 20.999704480171204 C 1.9998626708984375 10.497694730758667 10.499074935913086 1.9997414350509644 20.999858856201172 1.9997414350509644 C 31.502016067504883 1.9997414350509644 39.99994087219238 10.498571395874023 39.99994087219238 20.999704480171204 Z M 10.761974334716797 8.662396311759949 C 10.761974334716797 8.662396311759949 15.838687896728516 13.739163994789124 15.838687896728516 13.739163994789124 C 17.335832595825195 12.670070886611938 19.123428344726562 12.093663573265076 20.999858856201172 12.093663573265076 C 22.876375198364258 12.093663573265076 24.663970947265625 12.670070886611938 26.161029815673828 13.739163994789124 C 26.161029815673828 13.739163994789124 31.237743377685547 8.662396311759949 31.237743377685547 8.662396311759949 C 28.36602020263672 6.271292209625244 24.783275604248047 4.968129515647888 20.999858856201172 4.968129515647888 C 17.216527938842773 4.968129515647888 13.633783340454102 6.271292209625244 10.761974334716797 8.662396311759949 Z M 20.999858856201172 15.062051653862 C 17.718036651611328 15.062051653862 15.062435150146484 17.71834695339203 15.062435150146484 20.999704480171204 C 15.062435150146484 24.281500339508057 17.71846580505371 26.937357306480408 20.999858856201172 26.937357306480408 C 24.281766891479492 26.937357306480408 26.937368392944336 24.28106200695038 26.937368392944336 20.999704480171204 C 26.937368392944336 17.71790862083435 24.28133773803711 15.062051653862 20.999858856201172 15.062051653862 Z M 8.662813186645508 31.23783802986145 C 8.662813186645508 31.23783802986145 13.739526748657227 26.160632014274597 13.739526748657227 26.160632014274597 C 12.67050552368164 24.663726329803467 12.093637466430664 22.875767827033997 12.093637466430664 20.999704480171204 C 12.093637466430664 19.123202800750732 12.67050552368164 17.33568263053894 13.739526748657227 15.83877694606781 C 13.739526748657227 15.83877694606781 8.662813186645508 10.761570930480957 8.662813186645508 10.761570930480957 C 6.27122688293457 13.633525848388672 4.968660354614258 17.216017842292786 4.968660354614258 20.999704480171204 C 4.968660354614258 24.78339111804962 6.27122688293457 28.365444779396057 8.662813186645508 31.23783802986145 Z M 31.237743377685547 33.33701264858246 C 31.237743377685547 33.33701264858246 26.161029815673828 28.259806632995605 26.161029815673828 28.259806632995605 C 24.663970947265625 29.32933807373047 22.876375198364258 29.90574538707733 20.999858856201172 29.90574538707733 C 19.123428344726562 29.90574538707733 17.335832595825195 29.32933807373047 15.838687896728516 28.259806632995605 C 15.838687896728516 28.259806632995605 10.761974334716797 33.33701264858246 10.761974334716797 33.33701264858246 C 13.633783340454102 35.72811675071716 17.216527938842773 37.03084111213684 20.999858856201172 37.03084111213684 C 24.783275604248047 37.03084111213684 28.36602020263672 35.72811675071716 31.237743377685547 33.33701264858246 Z M 37.03114318847656 20.999704480171204 C 37.03114318847656 17.216017842292786 35.72857666015625 13.633525848388672 33.33699035644531 10.761570930480957 C 33.33699035644531 10.761570930480957 28.260276794433594 15.83877694606781 28.260276794433594 15.83877694606781 C 29.32929801940918 17.33568263053894 29.906166076660156 19.123202800750732 29.906166076660156 20.999704480171204 C 29.906166076660156 22.875767827033997 29.32929801940918 24.663726329803467 28.260276794433594 26.160632014274597 C 28.260276794433594 26.160632014274597 33.33699035644531 31.23783802986145 33.33699035644531 31.23783802986145 C 35.72857666015625 28.365444779396057 37.03114318847656 24.78339111804962 37.03114318847656 20.999704480171204 Z"/></g></svg>