<svg version="1.1" xmlns="http://www.w3.org/2000/svg" xmlns:xlink="http://www.w3.org/1999/xlink" width="25" height="41"><defs/><g><path fill="rgb(255,255,255)" stroke="none" paint-order="stroke fill markers" fill-rule="evenodd" d=" M 23.45220184326172 4.566563129425049 C 23.45220184326172 4.566563129425049 23.45220184326172 37.43317663669586 23.45220184326172 37.43317663669586 C 23.45220184326172 38.84679913520813 22.329622268676758 40.000052094459534 20.957962036132812 40.000052094459534 C 20.957962036132812 40.000052094459534 4.494176864624023 40.000052094459534 4.494176864624023 40.000052094459534 C 3.122516632080078 40.000052094459534 1.9999370574951172 38.84460747241974 1.9999370574951172 37.43186163902283 C 1.9999370574951172 37.43186163902283 1.9999370574951172 4.566563129425049 1.9999370574951172 4.566563129425049 C 1.9999370574951172 3.153817296028137 3.122516632080078 1.999687671661377 4.494176864624023 1.999687671661377 C 4.494176864624023 1.999687671661377 20.957962036132812 1.999687671661377 20.957962036132812 1.999687671661377 C 22.329622268676758 1.999687671661377 23.45220184326172 3.153817296028137 23.45220184326172 4.566563129425049 Z M 9.790788650512695 4.161543846130371 C 9.790788650512695 4.332931876182556 9.925800323486328 4.471883296966553 10.092569351196289 4.471883296966553 C 10.092569351196289 4.471883296966553 15.359569549560547 4.471883296966553 15.359569549560547 4.471883296966553 C 15.526338577270508 4.471883296966553 15.66135025024414 4.332931876182556 15.66135025024414 4.161543846130371 C 15.66135025024414 3.9888408184051514 15.526338577270508 3.849889397621155 15.359569549560547 3.849889397621155 C 15.359569549560547 3.849889397621155 10.092569351196289 3.849889397621155 10.092569351196289 3.849889397621155 C 9.925800323486328 3.849889397621155 9.790788650512695 3.9888408184051514 9.790788650512695 4.161543846130371 Z M 13.97323226928711 37.43186163902283 C 13.97323226928711 36.721762895584106 13.415075302124023 36.14886224269867 12.72602653503418 36.14886224269867 C 12.037063598632812 36.14886224269867 11.478906631469727 36.721762895584106 11.478906631469727 37.43186163902283 C 11.478906631469727 38.14196038246155 12.037063598632812 38.71617603302002 12.72602653503418 38.71617603302002 C 13.415075302124023 38.71617603302002 13.97323226928711 38.14196038246155 13.97323226928711 37.43186163902283 Z M 21.71661949157715 35.249842166900635 C 21.71661949157715 35.249842166900635 3.7355194091796875 35.249842166900635 3.7355194091796875 35.249842166900635 C 3.7355194091796875 35.249842166900635 3.7355194091796875 6.0700438022613525 3.7355194091796875 6.0700438022613525 C 3.7355194091796875 6.0700438022613525 21.71661949157715 6.0700438022613525 21.71661949157715 6.0700438022613525 C 21.71661949157715 6.0700438022613525 21.71661949157715 35.249842166900635 21.71661949157715 35.249842166900635 Z"/></g></svg>