<svg version="1.1" xmlns="http://www.w3.org/2000/svg" xmlns:xlink="http://www.w3.org/1999/xlink" width="47" height="46"><defs/><g><path fill="rgb(255,255,255)" stroke="none" paint-order="stroke fill markers" fill-rule="evenodd" d=" M 44.63134956359863 20.549039125442505 C 44.63134956359863 20.549039125442505 29.84006118774414 34.8641037940979 29.84006118774414 34.8641037940979 C 28.711130142211914 35.95686686038971 26.912376403808594 35.925745248794556 25.822240829467773 34.793970584869385 C 25.822240829467773 34.793970584869385 22.780315399169922 31.637099504470825 22.780315399169922 31.637099504470825 C 22.496559143066406 31.34254002571106 22.098133087158203 31.195698618888855 21.687089920043945 31.233395218849182 C 21.277677536010742 31.271530151367188 20.913068771362305 31.489819765090942 20.686647415161133 31.832157492637634 C 14.642879486083984 40.97840464115143 13.760969161987305 41.83183813095093 13.384258270263672 42.19609248638153 C 10.785734176635742 44.71124470233917 6.630413055419922 44.63848149776459 4.121410369873047 42.03434777259827 C 1.6122360229492188 39.430652379989624 1.6850204467773438 35.26605474948883 4.283458709716797 32.75134086608887 C 4.660083770751953 32.387086510658264 5.541908264160156 31.533653020858765 14.873077392578125 25.798948168754578 C 15.224468231201172 25.583288550376892 15.455781936645508 25.225170850753784 15.507709503173828 24.81664490699768 C 15.559722900390625 24.408557295799255 15.42599868774414 24.004853010177612 15.140783309936523 23.708540201187134 C 15.140783309936523 23.708540201187134 12.098857879638672 20.551669120788574 12.098857879638672 20.551669120788574 C 11.008808135986328 19.42077112197876 11.04022216796875 17.61747097969055 12.169153213500977 16.52514624595642 C 12.169153213500977 16.52514624595642 26.960355758666992 2.2100815773010254 26.960355758666992 2.2100815773010254 C 28.08928680419922 1.1173185110092163 29.88804054260254 1.1488784551620483 30.97817611694336 2.280214786529541 C 30.97817611694336 2.280214786529541 32.40433883666992 3.760463833808899 32.40433883666992 3.760463833808899 C 32.82379341125488 4.195728063583374 33.08360290527344 4.741013765335083 33.169776916503906 5.313037753105164 C 33.73677444458008 5.4191142320632935 34.27149963378906 5.697893738746643 34.69146919250488 6.134034633636475 C 34.69146919250488 6.134034633636475 39.234745025634766 10.848739624023438 39.234745025634766 10.848739624023438 C 39.93967247009277 11.580316662788391 40.185062408447266 12.609521508216858 39.93975830078125 13.54842984676361 C 40.88449668884277 13.335838556289673 41.90201950073242 13.617248058319092 42.60720443725586 14.349263429641724 C 42.60720443725586 14.349263429641724 44.70164489746094 16.52251625061035 44.70164489746094 16.52251625061035 C 45.791608810424805 17.653852581977844 45.76019477844238 19.456714391708374 44.63134956359863 20.549039125442505 Z M 30.163471221923828 30.5929913520813 C 30.163471221923828 30.5929913520813 16.440088272094727 16.35025155544281 16.440088272094727 16.35025155544281 C 16.440088272094727 16.35025155544281 16.440088272094727 16.35025155544281 16.440088272094727 16.35025155544281 C 16.440088272094727 16.35025155544281 14.142829895019531 18.573912620544434 14.142829895019531 18.573912620544434 C 14.142829895019531 18.573912620544434 17.184755325317383 21.730345368385315 17.184755325317383 21.730345368385315 C 18.067094802856445 22.6464604139328 18.486892700195312 23.91411817073822 18.326217651367188 25.17695426940918 C 18.16562843322754 26.43979036808014 17.441303253173828 27.56148338317871 16.358291625976562 28.226433873176575 C 12.222454071044922 30.768324375152588 7.112781524658203 33.97209703922272 6.257221221923828 34.7996689081192 C 4.783422470092773 36.226441383361816 4.742395401000977 38.579410552978516 6.165468215942383 40.056591272354126 C 7.588541030883789 41.53333365917206 9.936868667602539 41.57453691959381 11.410667419433594 40.147764444351196 C 12.266313552856445 39.32019257545471 15.639030456542969 34.31399643421173 18.31789207458496 30.260296940803528 C 19.018871307373047 29.19953215122223 20.16239356994629 28.515295028686523 21.426679611206055 28.398260235786438 C 22.69096565246582 28.281225442886353 23.942462921142578 28.743666291236877 24.824459075927734 29.658904671669006 C 24.824459075927734 29.658904671669006 27.866384506225586 32.816214084625244 27.866384506225586 32.816214084625244 C 27.866384506225586 32.816214084625244 30.163471221923828 30.5929913520813 30.163471221923828 30.5929913520813 Z M 42.65767288208008 18.50071108341217 C 42.65767288208008 18.50071108341217 40.56314659118652 16.327019929885864 40.56314659118652 16.327019929885864 C 40.56314659118652 16.327019929885864 31.28853988647461 22.410637497901917 31.28853988647461 22.410637497901917 C 31.15919303894043 22.495235681533813 30.987703323364258 22.47594904899597 30.879899978637695 22.36505091190338 C 30.879728317260742 22.364612579345703 30.879470825195312 22.364612579345703 30.87929916381836 22.364612579345703 C 30.772010803222656 22.253276109695435 30.75819206237793 22.08144974708557 30.846511840820312 21.954333305358887 C 30.846511840820312 21.954333305358887 37.190773010253906 12.826934456825256 37.190773010253906 12.826934456825256 C 37.190773010253906 12.826934456825256 32.64749717712402 8.111791133880615 32.64749717712402 8.111791133880615 C 32.64749717712402 8.111791133880615 29.10346221923828 9.746333241462708 29.10346221923828 9.746333241462708 C 28.98012351989746 9.803316473960876 28.834383010864258 9.777016520500183 28.738853454589844 9.680583357810974 C 28.7379093170166 9.67926836013794 28.736879348754883 9.678391695022583 28.73593521118164 9.677515029907227 C 28.64280891418457 9.58064353466034 28.61886215209961 9.436432123184204 28.67628288269043 9.314575672149658 C 28.67628288269043 9.314575672149658 30.360280990600586 5.7382203340530396 30.360280990600586 5.7382203340530396 C 30.360280990600586 5.7382203340530396 28.934118270874023 4.25840961933136 28.934118270874023 4.25840961933136 C 28.934118270874023 4.25840961933136 18.485862731933594 14.370303392410278 18.485862731933594 14.370303392410278 C 18.485862731933594 14.370303392410278 32.20941734313965 28.613043189048767 32.20941734313965 28.613043189048767 C 32.20941734313965 28.613043189048767 32.20941734313965 28.613043189048767 32.20941734313965 28.613043189048767 C 32.20941734313965 28.613043189048767 42.65767288208008 18.50071108341217 42.65767288208008 18.50071108341217 Z"/></g></svg>